<?xml version="1.0" encoding="UTF-8"?><svg id="Layer_1" xmlns="http://www.w3.org/2000/svg" xmlns:xlink="http://www.w3.org/1999/xlink" viewBox="0 0 158.15 44.35"><defs><style>.cls-1{fill:url(#linear-gradient-2);}.cls-2{fill:#865e9e;}.cls-3{fill:#580f7b;}.cls-4{fill:url(#linear-gradient);}</style><linearGradient id="linear-gradient" x1="0" y1="21.61" x2="44.29" y2="21.61" gradientUnits="userSpaceOnUse"><stop offset="0" stop-color="#e5be5e"/><stop offset="1" stop-color="#947b41"/></linearGradient><linearGradient id="linear-gradient-2" x1="19.32" y1="36.7" x2="24.98" y2="36.7" xlink:href="#linear-gradient"/></defs><path class="cls-4" d="M37.77,6.52C33.6,2.34,28.05.03,22.15,0c-5.9.03-11.45,2.34-15.63,6.52S0,16.31,0,22.25s2.31,11.53,6.52,15.74c2.35,2.35,5.08,4.1,8.11,5.2,0,0-.02-1.31-.02-1.97,0,0,0,0,0,0v-13.9l7.58-6.91,7.35,6.8v14.46c0,.53,0,1.54,0,1.54,3.06-1.09,5.88-2.86,8.24-5.22,4.2-4.2,6.52-9.79,6.52-15.74s-2.31-11.53-6.52-15.74ZM40.77,14.07c-.08.08-.23.14-.45.18-.58.1-1.16.17-1.79.27.16-1.47.19-2.95-.06-4.42.91,1.23,1.68,2.56,2.3,3.97ZM38.25,15.88c.17-.73.58-.89,1.11-1,.26-.05.53-.05.79-.1.27-.05.53-.13.84-.21.59,1.45,1.02,2.97,1.26,4.56-.08.21-.22.4-.41.56-.47.39-.99.73-1.53,1.01-1.13.58-2.29,1.09-3.27,1.91-.35.29-.68.61-1.01.92-.02-.02-.04-.03-.06-.05.35-1.02.73-2.04,1.04-3.08.45-1.5.9-3,1.26-4.53ZM24.77,18.74c.11-.12.25-.21.38-.31.25-.18.51-.35.76-.53.24-.16.26-.15.44.07.12.16.24.32.34.49.51.88.43,2.02.65,3,.1.42.22.83.36,1.24l-3.23-2.98c-.03-.36.04-.71.3-.99ZM25.2,11.3s.03.04.04.06c.12.23.22.47.3.71.15.3.27.62.37.93.25.77.31,1.61.15,2.4-.15.77-.61,1.57-1.24,2.15.02-.05.04-.11.04-.17,0-.11-.05-.21-.1-.31-.55-1.06-1.22-2.07-1.57-3.22-.27-.9-.48-2.19-.04-3.06.49-.96.75-2.16,1.11-3.2,0-.03.05-.05.14-.12-.02,1.36.32,2.58.82,3.82ZM29.93,14.16c-.28.74-.47,1.5-.71,2.29-.08-.1-.19-.24-.29-.38-.1,0-.48-.69-.55-.79-.19-.28-.38-.55-.57-.83-.37-.54-.72-1.1-1.05-1.67-.31-.53-.73-1.15-.89-1.75-.01-.05-.03-.11-.04-.16-.15-.58-.31-1.16-.48-1.73-.07-.24-.14-.47-.2-.71-.12-.49-.2-1-.25-1.5-.05-.52.04-1.05-.13-1.54.52.15,1.05.28,1.53.53.3.16.57.37.81.61.1.11.26.39.42.48.15.29.3.58.46.87.49.9,1,1.79,1.42,2.73.32.72.5,1.5.71,2.26.12.44,0,.87-.17,1.3ZM30.45,14.65c.41-.83.87-1.64,1.26-2.48.3-.64.52-1.31.78-2,.12.17.25.34.36.52.78,1.32,1.57,2.63,2.33,3.96.35.62.28,1.29-.03,1.88-.34.64-.78,1.24-1.22,1.83-.59.78-1.27,1.49-1.58,2.45-.01.04-.05.07-.1.14-.25-.4-.49-.77-.72-1.14-.21-.32-.41-.65-.64-.96-.96-1.31-1.15-2.71-.42-4.18ZM26.74,14.24c.52,1.24.56,2.54.43,3.94-.25-.33-.46-.59-.64-.86-.06-.1-.1-.27-.06-.37.32-.88.38-1.78.28-2.71ZM28.38,22.82c-.18-.37-.36-.74-.49-1.13-.3-.91-.31-1.88-.26-2.83.05-.98.07-1.94.07-2.92,0-.09,0-.19,0-.28.03,0,.06-.02.09-.03.27.38.54.76.81,1.14.74,1.06,1.45,2.13,2.21,3.18.45.63.41,1.29.23,1.97-.23.89-.53,1.75-.76,2.64-.04.15-.07.3-.1.45l-1.33-1.23c-.15-.32-.31-.63-.46-.95ZM30.62,25.41s0-.03,0-.05c.23-.96.54-1.9.8-2.85.09-.32.16-.64.24-.97.03,0,.06-.01.09-.02.31.65.65,1.28.92,1.95.37.91.8,2,.75,3-.02.45-.12.88-.26,1.3l-2.56-2.36ZM32.24,29.7c-.21.36-.44.73-.65,1.09v-1.69l.65.6ZM32.89,22.26c-.27-.64-.19-1.23.14-1.76.46-.73,1.03-1.39,1.52-2.11.42-.61.79-1.26,1.18-1.89.04-.06.08-.12.16-.24.08.24.15.41.19.59.24,1.06.34,2.09-.06,3.16-.64,1.68-1.17,3.4-1.75,5.1-.04.12-.1.24-.22.36-.04-.17-.08-.34-.13-.5-.33-.9-.63-1.82-1.01-2.71ZM34.48,9.64c.18-1.1.39-2.21.31-3.35.64.51,1.24,1.06,1.82,1.64.56,1.16.86,2.39.93,3.69.1,1.78-.18,3.51-.59,5.23-.02.07-.05.13-.11.28-.09-.33-.14-.59-.24-.83-.42-.96-.75-1.97-1.31-2.85-.77-1.2-1.04-2.41-.81-3.81ZM31.49,4.13c.92.48,1.79,1.03,2.62,1.64,0,.02.01.04.01.07.08.63.12,1.27.07,1.9-.08,1.05-.23,2.1-.36,3.16-1.12-.71-2.64-5.13-2.35-6.76ZM30.75,3.76s0,.02,0,.02c-.07,1.51.18,2.95.76,4.34.58,1.38.15,2.64-.49,3.87-.09.17-.2.33-.3.49,0,.02-.04.02-.1.04-.05-.16-.1-.31-.14-.47-.4-1.46-1.14-2.76-1.84-4.08-.38-.71-.77-1.42-1.1-2.16-.18-.4-.26-.84-.35-1.28-.06-.28.08-.52.33-.67.49-.29.98-.58,1.48-.85.6.22,1.18.46,1.75.73ZM25.3,2.07c.93.14,1.84.36,2.72.63-.52.3-1,.65-1.48,1-.23-.57-.66-1.06-1.19-1.38-.24-.14-.49-.26-.75-.34.24.03.47.06.7.09ZM21.73,1.83l.41-.02.41.02s.14,0,.37.02l1.18.44c.36.13.73.27,1.04.5.46.33.76.82,1.04,1.31,0,.02.01.03.02.05.16.36.33.72.53,1.06.12.21.15.4.21.62.01.04.03.09.05.13-.4-.37-.91-.65-1.32-.84-.88-.4-1.83-.63-2.68-1.1-.49-.27-.93-.63-1.31-1.04-.29-.32-.54-.69-.63-1.1.4-.02.67-.03.67-.03ZM20.38,1.91c.34.96,1.19,1.68,2.03,2.28.41.29.83.58,1.28.8.27.46.37,1,.27,1.53-.07.35-.31.67-.47,1-.16.34-.3.69-.43,1.05-.12.33-.24.66-.33.99-.09.33-.23.65-.41.94-.02.04-.05.07-.08.1-.01.01-.03.02-.05.02-.04,0-.07-.04-.09-.08-.1-.18-.2-.37-.31-.55-.09-.17-.23-.35-.29-.53-.56-1.75-1.37-3.4-2.1-5.08-.07-.15-.13-.3-.17-.46-.06-.28-.02-.56.02-.84.33-.36.64-.73.86-1.15.09,0,.18-.02.26-.02ZM13.42,18.83c-.23.31-.43.64-.64.96-.24.37-.47.74-.72,1.14-.05-.07-.09-.1-.1-.14-.31-.96-.99-1.67-1.58-2.45-.44-.58-.88-1.18-1.22-1.83-.31-.59-.39-1.26-.03-1.88.76-1.33,1.55-2.64,2.33-3.96.11-.18.24-.35.36-.52.27.69.49,1.37.78,2,.39.84.85,1.65,1.26,2.48.73,1.48.54,2.87-.42,4.18ZM14.19,12.87c.21-.76.39-1.54.71-2.26.87-1.98,2.18-3.74,2.82-5.88.05-.06.1-.11.15-.17.24-.25.48-.51.72-.76.25.96.39,1.94.41,2.93.01.83-.1,1.64-.13,2.47-.02.66-.21,1.37-.49,1.98-.27.59-.57,1.16-.9,1.72-.64,1.1-1.38,2.14-2.11,3.18-.1.14-.21.28-.29.38-.24-.78-.44-1.55-.71-2.29-.16-.43-.29-.86-.17-1.3ZM10.89,27.92c-.05-.28-.1-.56-.1-.84.02-1.26.35-2.46.82-3.61.27-.66.61-1.3.92-1.95.03,0,.06.01.09.02.08.32.15.65.24.97.27.95.57,1.89.8,2.85,0,0,0,.02,0,.02l-2.79,2.54ZM9.75,18.39c.49.72,1.06,1.38,1.52,2.11.33.53.41,1.13.14,1.76-.38.88-.68,1.8-1.01,2.71-.06.16-.09.33-.13.5-.13-.12-.18-.24-.22-.36-.58-1.7-1.11-3.42-1.75-5.1-.41-1.07-.31-2.1-.06-3.16.04-.18.11-.36.19-.59.08.12.12.18.16.24.39.63.76,1.28,1.18,1.89ZM9.94,28.78l-1.48,1.35,1.38,1.52,2.71-2.47v6c-.54-.82-.77-1.74-1.2-2.61-.06.78-.54,1.46-.75,2.21-.07.24-.11.49-.16.74-.01.07-.02.15-.04.22-.32-.25-.71-.43-1.09-.58-.84-.32-1.13-1.01-1.42-1.8-.31-.84-.45-1.72-.69-2.58-.3-1.09-.74-2.15-1.32-3.13-.27-.46-.62-.89-.87-1.36-.07-.13-.87-1.53-.92-1.51.76-.27,1.5-.55,2.25-.81.14-.05.28-.08.42-.1.48-.06.93.03,1.25.42.59.73,1.14,1.5,1.39,2.43.19.68.37,1.36.53,2.04ZM14.11,24.98c-.03-.15-.06-.29-.1-.43-.24-.88-.53-1.75-.76-2.64-.18-.68-.22-1.34.23-1.97.75-1.05,1.47-2.12,2.21-3.18.27-.38.54-.76.81-1.14.03,0,.06.02.09.03,0,.09,0,.19,0,.28,0,.84-.03,1.69-.02,2.53.01.85,0,1.71-.2,2.54-.1.41-.25.82-.4,1.22-.21.56-.42,1.12-.67,1.67l-1.2,1.09ZM17.6,19.06c-.04-.94-.31-1.86-.34-2.81-.02-.65.07-1.33.28-1.95-.09.89-.02,1.79.28,2.64,0,.02.01.04.01.06.07.14.14.27.22.4.11.17.24.32.4.46.29.26.66.42.95.68.31.28.5.66.6,1.06l-3.2,2.92c.5-1.1.84-2.27.79-3.47ZM19.45,17.38c0,.06.01.12.04.17-.63-.59-1.09-1.38-1.24-2.15-.16-.79-.1-1.63.15-2.4.1-.31.22-.63.37-.93.08-.24.18-.48.3-.71.01-.02.03-.04.04-.06.5-1.24.84-2.46.82-3.82.09.08.13.1.14.12.36,1.03.62,2.23,1.11,3.2.44.87.23,2.16-.04,3.06-.35,1.14-1.02,2.16-1.57,3.22-.05.1-.1.2-.1.31ZM19,2.07c.18-.03.37-.06.57-.08-.17.31-.43.57-.7.8-.37.31-.77.56-1.13.88-.45-.35-.94-.67-1.45-.97.88-.27,1.79-.48,2.72-.63ZM13.54,3.76c.57-.27,1.15-.51,1.75-.73.5.27.99.56,1.48.85.25.15.39.39.33.67-.09.43-.17.88-.35,1.28-.33.74-.72,1.45-1.1,2.16-.7,1.32-1.44,2.62-1.84,4.08-.04.16-.09.31-.14.47-.06-.02-.09-.03-.1-.04-.1-.16-.21-.32-.3-.49-.64-1.23-1.07-2.49-.49-3.87.58-1.39.83-2.84.76-4.34,0,0,0-.02,0-.02ZM10.17,5.84s0-.04.01-.07c.83-.61,1.71-1.16,2.62-1.64.29,1.63-1.23,6.05-2.35,6.76-.12-1.05-.28-2.1-.36-3.16-.05-.63,0-1.27.07-1.9ZM6.75,11.62c.07-1.3.37-2.53.93-3.69.57-.58,1.18-1.13,1.82-1.64-.08,1.15.13,2.25.31,3.35.23,1.4-.04,2.61-.81,3.81-.56.87-.89,1.89-1.31,2.85-.1.24-.15.5-.24.83-.06-.15-.09-.21-.11-.28-.41-1.72-.69-3.45-.59-5.23ZM5.83,10.1c-.25,1.47-.22,2.94-.06,4.42-.64-.09-1.22-.17-1.79-.27-.22-.04-.37-.09-.45-.18.62-1.41,1.4-2.74,2.3-3.97ZM3.31,14.58c.3.08.57.15.84.21.26.05.53.04.79.1.52.1.93.27,1.11,1,.36,1.52.81,3.03,1.26,4.53.31,1.04.69,2.05,1.04,3.08-.02.02-.04.03-.06.05-.34-.31-.66-.63-1.01-.92-.99-.82-2.15-1.33-3.27-1.91-.54-.28-1.06-.62-1.53-1.01-.19-.16-.33-.34-.41-.56.24-1.59.67-3.11,1.26-4.56ZM1.81,22.25c0-.71.04-1.41.11-2.1.6.63,1.31.94,1.99,1.29.74.38,1.48.77,2.2,1.18.29.17.55.4.86.63-.55.17-.98.3-1.41.45-.37.12-.72.29-1.09.39-.4.12-.79.15-1.17-.13-.45-.32-.93-.59-1.38-.91-.03-.02-.06-.05-.09-.08,0-.24-.01-.48-.01-.73ZM3.1,29.41c-.66-1.76-1.08-3.64-1.23-5.59.21.11.36.19.51.29.7.48,1.21,1.14,1.64,1.86.78,1.31,1.54,2.64,2.32,3.97.04-.03.02,0-.01,0-1.05-.01-2.1-.03-3.09-.46-.05-.02-.09-.05-.14-.09ZM3.51,30.4c.67.08,1.29.19,1.91.2.67,0,1.09.34,1.29.91.38,1.06.7,2.14,1.06,3.25-.33-.07-.66-.12-.97-.22-.43-.13-.86-.24-1.22-.48-.81-1.14-1.5-2.36-2.07-3.66ZM6.3,35.02c.38.08.72.14,1.06.23.64.16,1.3.27,1.92.5.65.25,1.14.68,1.2,1.48.04.47.21.94.35,1.4.08.26.2.5.31.78-1.84-1.2-3.47-2.68-4.84-4.38ZM11.64,38.01c-.12-.32-.23-.63-.35-.94-.05-.25-.16-.48-.22-.72-.06-.25-.05-.53,0-.78.06-.31.18-.61.3-.9.06-.14.1-.3.15-.44.02.13-.01.26,0,.39.02.14.06.27.11.4.1.27.24.52.39.76.21.34.43.71.52,1.09v2.66c-.06-.08-.11-.16-.17-.25-.26-.41-.57-.82-.74-1.28ZM20.72,18.97c-.29-.38-.55-.8-.55-1.27,0-.53.39-1.07.64-1.52.31-.54.58-1.07.71-1.68.13-.62.17-1.26.25-1.89.07-.51.2-.99.37-1.46.17.47.3.95.37,1.46.08.63.12,1.27.25,1.89.14.65.47,1.49.91,1.99.44.5.47,1.16.22,1.78-.09.22-.21.42-.35.61l-.75-.69c-.34-.32-.87-.32-1.22,0l-.86.79ZM31.59,39.49v-8.26c.33-.4.7-.77,1.08-1.13l1.73,1.6,1.39-1.51-1.8-1.66c.3-.48.54-1,.73-1.54.07-.21.13-.42.23-.62.28-.59.86-.98,1.48-1.19.93-.31,1.89-.21,2.85-.29.16-.01.69-.18.8-.06.14.15-.25.67-.33.79-.21.33-.42.63-.57.99-.4.92-1.04,1.68-1.53,2.54-.47.85-.98,1.6-1.73,2.23-.53.44-1.14.81-1.55,1.37-.64.85-.7,1.94-1.05,2.91-.37,1.05-.81,2.06-1.3,3.07-.13.27-.27.53-.43.78ZM33.16,39.4s-.09.07-.13.11c.22-.45.29-.96.38-1.46s.18-1,.43-1.44c.29-.5.69-.69,1.21-.87.62-.22,1.25-.34,1.89-.5.34-.08.68-.15,1.06-.23-.14.03-.44.53-.54.64-.19.22-.39.44-.59.65-.39.41-.8.81-1.23,1.19s-.89.76-1.36,1.11c-.36.27-.77.5-1.12.78ZM39.66,32.6c-.28.47-.55,1.04-.99,1.4-.11.09-.23.17-.37.23-.68.29-1.45.27-2.2.33-.73.05-1.38.22-1.97.67.12-.36.34-.71.46-1.08.13-.38.25-.77.47-1.1.15-.23.34-.44.54-.63.67-.64,1.46-1.16,2.32-1.51.46-.19.86-.28,1.34-.32.18-.01,1.45-.05,1.51-.18-.33.76-.71,1.49-1.13,2.21ZM41.19,29.41s-.09.07-.14.09c-.98.43-2.04.44-3.09.46-.03,0-.05-.04-.01,0,.78-1.34,1.54-2.66,2.32-3.97.43-.72.93-1.38,1.64-1.86.14-.1.3-.18.51-.29-.15,1.95-.57,3.83-1.23,5.59ZM42.4,23.08c-.11.18-.31.3-.49.41-.28.17-.56.35-.88.43-.35.09-.71,0-1.06.01-.39.01-.77.06-1.16.11-.4.05-.81.11-1.21.16-.12.01-1.07,0-1.1.06.33-.66.92-1.34,1.6-1.65.78-.35,1.52-.78,2.28-1.17.69-.35,1.4-.66,1.99-1.29.07.69.11,1.39.11,2.1,0,.24.05.57-.06.79,0,.01-.01.03-.02.04Z"/><path class="cls-1" d="M24.76,31.48l-2.07-2.07c-.14-.14-.33-.36-.53-.36s-.39.22-.53.36l-2.07,2.07c-.29.29-.29.77,0,1.07l.78.78s0,.04,0,.05c0,.08.03.15.09.21.06.06.13.09.21.09,0,0,.01,0,.02,0,0,.08.02.17.08.23.06.06.13.09.21.09.02,0,.04,0,.05,0l.29.29-.1.1c-.13.13-.13.34,0,.48l.6.6v1.54c-.04.05-.07.12-.07.19s.03.14.07.19v.06c-.04.05-.07.12-.07.19s.03.14.07.19v3.27h-.57c-.07,0-.22.12-.22.28v.09h-.25c-.08,0-.13.04-.13.09v.24c0,.06.05.09.13.09h.25v.45h-.82c-.08,0-.13.04-.13.09v.26c0,.06.05.09.13.09h.82v.43h-.54c-.08,0-.13.04-.13.09v.22c0,.06.05.09.13.09h.54v.19c0,.05.02.18.22.18h.57c0,.2.16.37.36.37h.04c.2,0,.36-.16.36-.36v-6.14c.06-.05.1-.13.1-.22,0-.09-.04-.17-.1-.22h0s.01-.01.02-.02c.06-.06.09-.13.09-.21s-.03-.15-.09-.21c0,0-.01,0-.02-.01v-1.51l.6-.6c.13-.13.13-.34,0-.48l-.1-.1.29-.29s.04,0,.05,0c.08,0,.15-.03.21-.09.06-.06.09-.15.08-.23,0,0,.01,0,.02,0,.08,0,.15-.03.21-.09.06-.06.09-.13.09-.21,0-.02,0-.04,0-.05l.78-.78c.29-.29.29-.77,0-1.07ZM21.76,43.52h-.37s-.02-.02-.02-.05v-1.87s.01-.05.02-.05h.29s.08,0,.08,0v1.96ZM22.75,34.67l-.54.54s-.09.03-.12,0l-.54-.54s-.03-.09,0-.12l.54-.54s.04-.03.06-.03.04,0,.06.03l.54.54s.03.09,0,.12ZM22.15,33.53c-.09,0-.17.03-.24.1l-.21.21-.27-.27c.05-.11.03-.24-.06-.32-.06-.06-.13-.09-.21-.09,0,0-.02,0-.02,0,0-.08-.02-.17-.08-.23-.06-.06-.13-.09-.21-.09-.04,0-.08,0-.12.02l-.76-.76s-.04-.06-.04-.09.01-.07.04-.09l2.07-2.07s.06-.04.09-.04.07.01.09.04l2.07,2.07s.04.06.04.09-.01.07-.04.09l-.76.76s-.08-.02-.12-.02c-.08,0-.15.03-.21.09-.06.06-.09.15-.08.23,0,0-.01,0-.02,0-.08,0-.15.03-.21.09-.09.09-.11.22-.06.32l-.27.27-.21-.21c-.06-.06-.15-.1-.24-.1Z"/><path class="cls-3" d="M69.05,27.21h-2.81v-5.84h-5.47v5.84h-2.81v-13.62h2.81v5.52h5.47v-5.52h2.81v13.62Z"/><path class="cls-3" d="M70.9,22.06c0-1,.19-1.9.58-2.68.39-.79.94-1.39,1.67-1.82.73-.43,1.57-.64,2.53-.64,1.37,0,2.48.42,3.34,1.25.86.83,1.35,1.97,1.44,3.4l.02.69c0,1.55-.43,2.8-1.3,3.74s-2.03,1.41-3.49,1.41-2.62-.47-3.49-1.4-1.3-2.21-1.3-3.82v-.12ZM73.6,22.25c0,.96.18,1.7.54,2.21.36.51.88.76,1.55.76s1.17-.25,1.53-.75.55-1.31.55-2.41c0-.94-.18-1.67-.55-2.19s-.89-.78-1.55-.78-1.17.26-1.53.77c-.36.52-.54,1.31-.54,2.39Z"/><path class="cls-3" d="M84.68,17.09l.08,1.13c.72-.88,1.69-1.32,2.91-1.32,1.3,0,2.2.51,2.68,1.54.71-1.03,1.72-1.54,3.04-1.54,1.1,0,1.91.32,2.45.96.54.64.8,1.6.8,2.89v6.46h-2.71v-6.45c0-.57-.11-.99-.34-1.26-.22-.26-.62-.4-1.19-.4-.81,0-1.37.39-1.68,1.16v6.95s-2.69,0-2.69,0v-6.44c0-.59-.12-1.01-.35-1.27-.23-.26-.62-.39-1.18-.39-.77,0-1.32.32-1.66.95v7.15h-2.7v-10.12h2.53Z"/><path class="cls-3" d="M103.39,27.4c-1.48,0-2.69-.46-3.62-1.37s-1.4-2.12-1.4-3.64v-.26c0-1.02.2-1.92.59-2.73.39-.8.95-1.42,1.67-1.85.72-.43,1.54-.65,2.46-.65,1.38,0,2.47.44,3.27,1.31.79.87,1.19,2.11,1.19,3.71v1.1h-6.44c.09.66.35,1.19.79,1.59.44.4,1,.6,1.67.6,1.04,0,1.85-.38,2.44-1.13l1.33,1.49c-.41.57-.95,1.02-1.65,1.34-.69.32-1.46.48-2.3.48ZM103.08,19.08c-.54,0-.97.18-1.3.54s-.55.88-.64,1.56h3.76v-.22c-.01-.6-.17-1.07-.49-1.39-.31-.33-.75-.49-1.33-.49Z"/><path class="cls-3" d="M116.83,22.41v4.8h-2.81v-13.62h5.31c1.02,0,1.92.19,2.7.56.78.38,1.37.91,1.79,1.59.42.69.63,1.47.63,2.35,0,1.33-.46,2.39-1.37,3.16-.91.77-2.18,1.15-3.79,1.15h-2.46ZM116.83,20.14h2.51c.74,0,1.31-.17,1.7-.52.39-.35.58-.85.58-1.5s-.2-1.21-.59-1.62-.94-.62-1.63-.64h-2.57v4.27Z"/><path class="cls-3" d="M125.66,22.06c0-1,.19-1.9.58-2.68.39-.79.94-1.39,1.67-1.82.73-.43,1.57-.64,2.53-.64,1.37,0,2.48.42,3.34,1.25.86.83,1.35,1.97,1.44,3.4l.02.69c0,1.55-.43,2.8-1.3,3.74s-2.03,1.41-3.49,1.41-2.62-.47-3.49-1.4-1.3-2.21-1.3-3.82v-.12ZM128.36,22.25c0,.96.18,1.7.54,2.21.36.51.88.76,1.55.76s1.17-.25,1.53-.75.55-1.31.55-2.41c0-.94-.18-1.67-.55-2.19s-.89-.78-1.55-.78-1.17.26-1.53.77c-.36.52-.54,1.31-.54,2.39Z"/><path class="cls-3" d="M136.89,14.47c0-.41.14-.74.41-1,.27-.26.64-.39,1.11-.39s.83.13,1.1.39c.27.26.41.6.41,1s-.14.75-.42,1.01c-.28.26-.64.39-1.1.39s-.82-.13-1.1-.39-.42-.6-.42-1.01ZM139.76,27.21h-2.71v-10.12h2.71v10.12Z"/><path class="cls-3" d="M144.48,17.09l.08,1.17c.72-.9,1.69-1.36,2.91-1.36,1.07,0,1.87.31,2.39.94.52.63.79,1.57.8,2.82v6.54h-2.7v-6.47c0-.57-.12-.99-.37-1.25-.25-.26-.66-.39-1.24-.39-.76,0-1.33.32-1.71.97v7.14h-2.7v-10.12h2.54Z"/><path class="cls-3" d="M155.95,14.6v2.49h1.73v1.98h-1.73v5.05c0,.38.07.64.21.8s.42.24.82.24c.3,0,.56-.02.79-.07v2.05c-.53.16-1.08.24-1.64.24-1.9,0-2.86-.96-2.9-2.87v-5.45h-1.48v-1.98h1.48v-2.49h2.7Z"/><path class="cls-2" d="M63.43,36.95h-1.11v-2.84h-2.87v2.84h-1.11v-6.41h1.11v2.67h2.87v-2.67h1.11v6.41Z"/><path class="cls-2" d="M64.45,34.53c0-.47.09-.89.28-1.26.18-.37.44-.66.78-.86s.72-.3,1.15-.3c.64,0,1.16.21,1.56.62.4.41.62.96.65,1.65v.25c0,.47-.09.89-.27,1.26-.18.37-.44.66-.77.86-.34.2-.72.3-1.16.3-.67,0-1.21-.22-1.61-.67-.4-.45-.6-1.04-.6-1.79v-.05ZM65.52,34.62c0,.49.1.87.3,1.15s.48.42.85.42.64-.14.84-.42c.2-.28.3-.69.3-1.24,0-.48-.1-.86-.31-1.14-.21-.28-.49-.42-.84-.42s-.63.14-.83.42-.31.69-.31,1.24Z"/><path class="cls-2" d="M70.78,32.19l.03.5c.33-.39.79-.59,1.37-.59.64,0,1.07.24,1.31.73.35-.49.83-.73,1.46-.73.52,0,.92.15,1.17.44.26.29.39.72.39,1.29v3.13h-1.07v-3.1c0-.3-.07-.52-.2-.66-.13-.14-.35-.21-.66-.21-.24,0-.44.07-.6.2-.15.13-.26.3-.32.51v3.26s-1.06,0-1.06,0v-3.13c-.01-.56-.3-.84-.86-.84-.43,0-.73.17-.91.52v3.45h-1.07v-4.76h1.01Z"/><path class="cls-2" d="M79.72,37.04c-.68,0-1.23-.21-1.65-.64-.42-.43-.63-1-.63-1.71v-.13c0-.48.09-.9.27-1.27.18-.37.44-.67.77-.87.33-.21.7-.31,1.11-.31.65,0,1.15.21,1.5.62s.53,1,.53,1.76v.43h-3.11c.03.39.16.7.39.93.23.23.52.34.87.34.49,0,.89-.2,1.2-.59l.58.55c-.19.29-.45.51-.76.66-.32.16-.68.24-1.07.24ZM79.59,32.96c-.29,0-.53.1-.71.31-.18.21-.3.49-.35.86h2.04v-.08c-.02-.36-.12-.63-.29-.81-.17-.18-.4-.28-.7-.28Z"/><path class="cls-2" d="M85.13,35.66c0-.19-.08-.34-.24-.44-.16-.1-.42-.19-.78-.26s-.67-.17-.91-.29c-.53-.26-.8-.63-.8-1.12,0-.41.17-.75.52-1.03s.79-.41,1.32-.41c.57,0,1.03.14,1.38.42s.53.65.53,1.1h-1.07c0-.21-.08-.38-.23-.51-.15-.14-.35-.21-.61-.21-.23,0-.43.05-.57.16-.15.11-.22.25-.22.44,0,.16.07.29.21.38.14.09.42.18.84.27.42.09.75.2.99.33s.42.28.53.46c.12.18.17.4.17.65,0,.43-.18.78-.53,1.04s-.82.4-1.4.4c-.39,0-.74-.07-1.04-.21s-.54-.33-.71-.58c-.17-.25-.26-.51-.26-.8h1.04c.01.25.11.45.29.58.18.14.41.2.7.2s.5-.05.64-.16c.15-.11.22-.25.22-.42Z"/><path class="cls-2" d="M89.73,36.95v-3.97h-.73v-.79h.73v-.44c0-.53.15-.94.44-1.22.29-.29.7-.43,1.23-.43.19,0,.39.03.6.08l-.03.84c-.12-.02-.25-.04-.41-.04-.51,0-.77.26-.77.79v.42h.97v.79h-.97v3.97h-1.07Z"/><path class="cls-2" d="M92.35,34.53c0-.47.09-.89.28-1.26.18-.37.44-.66.78-.86s.72-.3,1.15-.3c.64,0,1.16.21,1.56.62.4.41.62.96.65,1.65v.25c0,.47-.09.89-.27,1.26-.18.37-.44.66-.77.86-.34.2-.72.3-1.16.3-.67,0-1.21-.22-1.61-.67-.4-.45-.6-1.04-.6-1.79v-.05ZM93.42,34.62c0,.49.1.87.3,1.15s.48.42.85.42.64-.14.84-.42c.2-.28.3-.69.3-1.24,0-.48-.1-.86-.31-1.14-.21-.28-.49-.42-.84-.42s-.63.14-.83.42-.31.69-.31,1.24Z"/><path class="cls-2" d="M100.17,33.17c-.14-.02-.29-.04-.44-.04-.49,0-.82.19-.99.56v3.26h-1.07v-4.76h1.02l.03.53c.26-.41.62-.62,1.07-.62.15,0,.28.02.38.06v1Z"/><path class="cls-2" d="M105.19,37.04c-.68,0-1.23-.21-1.65-.64-.42-.43-.63-1-.63-1.71v-.13c0-.48.09-.9.27-1.27.18-.37.44-.67.77-.87.33-.21.7-.31,1.11-.31.65,0,1.15.21,1.5.62s.53,1,.53,1.76v.43h-3.11c.03.39.16.7.39.93.23.23.52.34.87.34.49,0,.89-.2,1.2-.59l.58.55c-.19.29-.45.51-.76.66-.32.16-.68.24-1.07.24ZM105.06,32.96c-.29,0-.53.1-.71.31-.18.21-.3.49-.35.86h2.04v-.08c-.02-.36-.12-.63-.29-.81-.17-.18-.4-.28-.7-.28Z"/><path class="cls-2" d="M109.55,35.6l1.01-3.41h1.1l-1.65,4.76h-.93l-1.66-4.76h1.11l1.02,3.41Z"/><path class="cls-2" d="M114.37,37.04c-.68,0-1.23-.21-1.65-.64-.42-.43-.63-1-.63-1.71v-.13c0-.48.09-.9.27-1.27.18-.37.44-.67.77-.87.33-.21.7-.31,1.11-.31.65,0,1.15.21,1.5.62s.53,1,.53,1.76v.43h-3.11c.03.39.16.7.39.93.23.23.52.34.87.34.49,0,.89-.2,1.2-.59l.58.55c-.19.29-.45.51-.76.66-.32.16-.68.24-1.07.24ZM114.24,32.96c-.29,0-.53.1-.71.31-.18.21-.3.49-.35.86h2.04v-.08c-.02-.36-.12-.63-.29-.81-.17-.18-.4-.28-.7-.28Z"/><path class="cls-2" d="M119.6,33.17c-.14-.02-.29-.04-.44-.04-.49,0-.82.19-.99.56v3.26h-1.07v-4.76h1.02l.03.53c.26-.41.62-.62,1.07-.62.15,0,.28.02.38.06v1Z"/><path class="cls-2" d="M122.02,35.42l.97-3.23h1.14l-1.89,5.48c-.29.8-.78,1.2-1.48,1.2-.16,0-.33-.03-.52-.08v-.83h.2c.27.01.47-.04.61-.13.14-.1.24-.26.32-.5l.15-.41-1.67-4.74h1.15l1.01,3.23Z"/><path class="cls-2" d="M124.48,34.53c0-.47.09-.89.28-1.26.18-.37.44-.66.78-.86s.72-.3,1.15-.3c.64,0,1.16.21,1.56.62.4.41.62.96.65,1.65v.25c0,.47-.09.89-.27,1.26-.18.37-.44.66-.77.86-.34.2-.72.3-1.16.3-.67,0-1.21-.22-1.61-.67-.4-.45-.6-1.04-.6-1.79v-.05ZM125.55,34.62c0,.49.1.87.3,1.15s.48.42.85.42.64-.14.84-.42c.2-.28.3-.69.3-1.24,0-.48-.1-.86-.31-1.14-.21-.28-.49-.42-.84-.42s-.63.14-.83.42-.31.69-.31,1.24Z"/><path class="cls-2" d="M130.8,32.19l.03.55c.35-.43.81-.64,1.39-.64.99,0,1.5.57,1.51,1.7v3.15h-1.07v-3.08c0-.3-.07-.53-.2-.67-.13-.14-.34-.22-.64-.22-.43,0-.75.2-.96.58v3.39h-1.07v-4.76h1.01Z"/><path class="cls-2" d="M136.92,37.04c-.68,0-1.23-.21-1.65-.64-.42-.43-.63-1-.63-1.71v-.13c0-.48.09-.9.27-1.27.18-.37.44-.67.77-.87.33-.21.7-.31,1.11-.31.65,0,1.15.21,1.5.62s.53,1,.53,1.76v.43h-3.11c.03.39.16.7.39.93.23.23.52.34.87.34.49,0,.89-.2,1.2-.59l.58.55c-.19.29-.45.51-.76.66-.32.16-.68.24-1.07.24ZM136.79,32.96c-.29,0-.53.1-.71.31-.18.21-.3.49-.35.86h2.04v-.08c-.02-.36-.12-.63-.29-.81-.17-.18-.4-.28-.7-.28Z"/></svg>